<svg xmlns="http://www.w3.org/2000/svg" xmlns:xlink="http://www.w3.org/1999/xlink" version="1.1" id="Layer_1" x="0px" y="0px" width="100px" height="100px" viewBox="0 0 100 100" enable-background="new 0 0 100 100" xml:space="preserve">
<path d="M38.031,84.938c0,7.541-6.724,13.654-15.015,13.654l0,0C14.723,98.593,8,92.479,8,84.938V15.272  C8,7.731,14.723,1.618,23.017,1.618l0,0c8.291,0,15.015,6.114,15.015,13.655V84.938z"/>
<path d="M92.031,84.938c0,7.541-6.724,13.654-15.015,13.654l0,0C68.723,98.593,62,92.479,62,84.938V15.272  c0-7.541,6.723-13.655,15.017-13.655l0,0c8.291,0,15.015,6.114,15.015,13.655V84.938z"/>
</svg>